<svg xmlns="http://www.w3.org/2000/svg" width="286.011" height="326.333" viewBox="0 0 286.011 326.333"><defs><style>.a{fill:#fff;}.b{fill:#293549;}.c{fill:#3bab5e;}.d{fill:#f7f8f9;}.e{fill:#424143;opacity:0.4;}.f{fill:#221f1f;opacity:0.1;}</style></defs><g transform="translate(-19.7 -5)"><path class="a" d="M19.7,92.664A13.789,13.789,0,0,1,25.9,81.89L156.5,6.469a13.831,13.831,0,0,1,12.407,0l130.6,75.421a13.789,13.789,0,0,1,6.2,10.774V243.506a13.789,13.789,0,0,1-6.2,10.774L168.909,329.7a13.831,13.831,0,0,1-12.407,0L25.9,254.28a13.789,13.789,0,0,1-6.2-10.774V92.664Z" transform="translate(0 0)"/><g transform="translate(87.938 50.873)"><path class="b" d="M61.5,41.915A8.779,8.779,0,0,1,70.315,33.1H202.547a8.779,8.779,0,0,1,8.815,8.815V258.872a8.779,8.779,0,0,1-8.815,8.815H70.315a8.779,8.779,0,0,1-8.815-8.815S61.5,41.915,61.5,41.915Z" transform="translate(-61.5 -33.1)"/><g transform="translate(8.815 30.691)"><rect class="c" width="132.231" height="165.697"/></g><g transform="translate(65.463 13.386)"><g transform="translate(3.428)"><path class="d" d="M115.127,42.279H104.19a.433.433,0,0,1-.49-.49.521.521,0,0,1,.49-.49h10.938a.49.49,0,0,1,0,.979Z" transform="translate(-103.7 -41.3)"/></g><g transform="translate(0 2.449)"><path class="d" d="M120.047,43.779H102.09a.521.521,0,0,1-.49-.49.433.433,0,0,1,.49-.49h17.957a.521.521,0,0,1,.49.49A.433.433,0,0,1,120.047,43.779Z" transform="translate(-101.6 -42.8)"/></g><g transform="translate(3.428 4.734)"><path class="d" d="M115.127,45.179H104.19a.49.49,0,0,1,0-.979h10.938a.49.49,0,0,1,0,.979Z" transform="translate(-103.7 -44.2)"/></g></g><g transform="translate(65.463 207.489)"><path class="d" d="M111.068,179.3a9.511,9.511,0,0,1-9.468-9.632,9.372,9.372,0,0,1,9.468-9.468,9.475,9.475,0,0,1,9.468,9.468A9.616,9.616,0,0,1,111.068,179.3Zm0-18.284a8.652,8.652,0,1,0,8.652,8.652A8.709,8.709,0,0,0,111.068,161.016Z" transform="translate(-101.6 -160.2)"/></g><rect class="d" width="110.193" height="31.18" transform="translate(19.753 39.506)"/><g transform="translate(19.753 80.645)"><rect class="e" width="71.666" height="31.18" transform="translate(38.69 0.326)"/><rect class="e" width="31.507" height="31.507" transform="translate(0 0)"/><rect class="e" width="71.666" height="31.18" transform="translate(38.69 39.18)"/><rect class="e" width="31.507" height="31.507" transform="translate(0 38.853)"/><rect class="e" width="71.666" height="31.18" transform="translate(38.69 77.869)"/><rect class="e" width="31.507" height="31.507" transform="translate(0 77.706)"/></g></g><path class="f" d="M244.039,81.89,113.277,6.469A11.633,11.633,0,0,0,107.4,5V331.333a11.634,11.634,0,0,0,5.877-1.469l130.6-75.421a13.789,13.789,0,0,0,6.2-10.774v-151A13.2,13.2,0,0,0,244.039,81.89Z" transform="translate(55.469)"/></g></svg>