<svg xmlns="http://www.w3.org/2000/svg" width="140" height="28.39" viewBox="0 0 140 28.39"><path d="M47.2,23.278V4.7h3.6l3.1,7.266c.6,1.472,1.6,3.863,2.2,5.426h.1c-.1-1.931-.4-5.242-.4-8.645V4.7h3.5V23.278H55.7L52.6,16.2a53.967,53.967,0,0,1-2-5.61h-.1c.1,1.839.2,4.782.2,8.461v4.231Z" transform="translate(-2.779)" fill="#fff"/><path d="M71.3,15.092H66.7v5.058h5.2v3.127H62.7V4.7h8.8V7.827H66.6v4.323h4.6l.1,2.943Z" transform="translate(-3.614)" fill="#fff"/><path d="M76.8,8.011H73.2V4.7H84.3V8.011H80.7V23.278H76.8Z" transform="translate(-4.278)" fill="#fff"/><path d="M89,23.286,85.5,4.6h4.1l1,7.456c.3,2.117.5,4.234.7,6.535h.1c.3-2.3.7-4.326,1.1-6.535L93.9,4.6h3.2l1.4,7.364c.4,2.117.7,4.142,1,6.627h.1c.3-2.393.5-4.418.8-6.627l1-7.364h3.8l-3.6,18.686H97.5l-1.2-6.075c-.3-1.749-.6-3.866-.9-6.075h-.1c-.4,2.209-.7,4.326-1.1,6.167l-1.4,6.075L89,23.286Z" transform="translate(-5.331)" fill="#fff"/><path d="M119.3,13.616c0,7-2.7,9.861-6.6,9.861s-6.4-4.516-6.4-9.585S108.5,4.4,113,4.4,119.3,9.377,119.3,13.616Zm-8.9.369c0,4.239.9,6.359,2.5,6.359s2.3-2.765,2.3-6.544-.5-6.267-2.3-6.267S110.4,9.93,110.4,13.985Z" transform="translate(-6.299)" fill="#fff"/><path d="M121.8,4.968a22.617,22.617,0,0,1,4.3-.368c2.2,0,4.1.276,5.4,1.381a4.783,4.783,0,0,1,1.6,3.866,4.825,4.825,0,0,1-3.1,4.694h0c1.4.46,2.1,1.657,2.5,3.682a29.11,29.11,0,0,0,1.3,5.063h-4.1a23.43,23.43,0,0,1-1-4.418c-.4-2.3-1-2.946-2.3-2.946h-.6v7.456h-3.9l-.1-18.41Zm3.9,8.1h.7a2.688,2.688,0,0,0,2.7-2.946c0-1.657-.7-2.669-2.5-2.761h-.9v5.707Z" transform="translate(-8)" fill="#fff"/><path d="M135.9,4.7h3.9v8.373h.1l1-2.392L143.6,4.7h4.3l-4.5,8.1L148,23.378h-4.3l-2.9-7.729-.9,1.564v6.165h-4V4.7Z" transform="translate(-8 0)" fill="#fff"/><path d="M9.9,0A2.809,2.809,0,0,0,7.6,1.23L.3,13.149a2.67,2.67,0,0,0,0,2.459l7.3,11.73a2.646,2.646,0,0,0,2.3,1.041H24.5a2.646,2.646,0,0,0,2.3-1.041l7.3-11.824a2.2,2.2,0,0,0,0-2.459L26.8,1.23A2.809,2.809,0,0,0,24.5,0ZM10,6.716h2.6L12.9,7l4.3,7.189v.189h0l4.3-7.284.3-.284h2.5c.2.095.4.378.3.568l-4.2,7.095,4.2,7c.1.189-.1.378-.3.473H21.8l-.3-.189-4.3-7.095h-.1l-4.3,7.095-.3.189H10c-.2,0-.3,0-.4-.189a.336.336,0,0,1,.1-.284l4.2-7L9.7,7.378a.339.339,0,0,1,.2-.473h0Z" fill="#12afaf"/></svg>