<svg xmlns="http://www.w3.org/2000/svg" xmlns:xlink="http://www.w3.org/1999/xlink" width="362.667" height="540.166" viewBox="0 0 362.667 540.166">
  <defs>
    <linearGradient id="linear-gradient" y1="4.038" x2="0.999" y2="4.038" gradientUnits="objectBoundingBox">
      <stop offset="0.077" stop-color="#bdbdbd"/>
      <stop offset="0.13" stop-color="#c2c2c2"/>
      <stop offset="0.37" stop-color="#d7d7d7"/>
      <stop offset="0.527" stop-color="#dfdfdf"/>
      <stop offset="1" stop-color="#cdcdcd"/>
    </linearGradient>
    <linearGradient id="linear-gradient-2" x1="0" y1="1.911" x2="1" y2="1.911" xlink:href="#linear-gradient"/>
    <linearGradient id="linear-gradient-3" x1="45.478" y1="4.074" x2="46.706" y2="4.074" xlink:href="#linear-gradient"/>
    <linearGradient id="linear-gradient-4" x1="0.656" y1="2.146" x2="1.001" y2="2.825" gradientUnits="objectBoundingBox">
      <stop offset="0" stop-color="#fff"/>
      <stop offset="1"/>
    </linearGradient>
  </defs>
  <g id="Grupo_10" data-name="Grupo 10" transform="translate(-2930.761 -3504.79)">
    <path id="Trazado_8" data-name="Trazado 8" d="M3067.738,3700.49l-38.97,36.6,13.047,25.585,32.7-47.442Z" fill="url(#linear-gradient)"/>
    <g id="Grupo_4" data-name="Grupo 4" opacity="0.8">
      <ellipse id="Elipse_1" data-name="Elipse 1" cx="142.327" cy="14.741" rx="142.327" ry="14.741" transform="translate(3008.774 4015.474)" fill="#fff"/>
      <ellipse id="Elipse_2" data-name="Elipse 2" cx="141.988" cy="14.741" rx="141.988" ry="14.741" transform="translate(3009.113 4015.474)" fill="#fefefe" opacity="0.999" style="isolation: isolate"/>
      <ellipse id="Elipse_3" data-name="Elipse 3" cx="141.65" cy="14.741" rx="141.65" ry="14.741" transform="translate(3009.452 4015.474)" fill="#fdfdfd" opacity="0.998" style="isolation: isolate"/>
      <ellipse id="Elipse_4" data-name="Elipse 4" cx="141.311" cy="14.572" rx="141.311" ry="14.572" transform="translate(3009.791 4015.643)" fill="#fcfcfc" opacity="0.997" style="isolation: isolate"/>
      <ellipse id="Elipse_5" data-name="Elipse 5" cx="141.141" cy="14.572" rx="141.141" ry="14.572" transform="translate(3009.96 4015.643)" fill="#fbfbfb" opacity="0.996" style="isolation: isolate"/>
      <ellipse id="Elipse_6" data-name="Elipse 6" cx="140.802" cy="14.572" rx="140.802" ry="14.572" transform="translate(3010.299 4015.643)" fill="#fafafa" opacity="0.995" style="isolation: isolate"/>
      <ellipse id="Elipse_7" data-name="Elipse 7" cx="140.463" cy="14.572" rx="140.463" ry="14.572" transform="translate(3010.638 4015.643)" fill="#f9f9f9" opacity="0.994" style="isolation: isolate"/>
      <ellipse id="Elipse_8" data-name="Elipse 8" cx="140.125" cy="14.572" rx="140.125" ry="14.572" transform="translate(3010.977 4015.643)" fill="#f8f8f8" opacity="0.993" style="isolation: isolate"/>
      <ellipse id="Elipse_9" data-name="Elipse 9" cx="139.786" cy="14.402" rx="139.786" ry="14.402" transform="translate(3011.316 4015.813)" fill="#f7f7f7" opacity="0.992" style="isolation: isolate"/>
      <ellipse id="Elipse_10" data-name="Elipse 10" cx="139.447" cy="14.402" rx="139.447" ry="14.402" transform="translate(3011.655 4015.813)" fill="#f6f6f6" opacity="0.99" style="isolation: isolate"/>
      <ellipse id="Elipse_11" data-name="Elipse 11" cx="139.108" cy="14.402" rx="139.108" ry="14.402" transform="translate(3011.993 4015.813)" fill="#f5f5f5" opacity="0.989" style="isolation: isolate"/>
      <ellipse id="Elipse_12" data-name="Elipse 12" cx="138.769" cy="14.402" rx="138.769" ry="14.402" transform="translate(3012.332 4015.813)" fill="#f4f4f4" opacity="0.988" style="isolation: isolate"/>
      <ellipse id="Elipse_13" data-name="Elipse 13" cx="138.43" cy="14.402" rx="138.43" ry="14.402" transform="translate(3012.671 4015.813)" fill="#f3f3f3" opacity="0.987" style="isolation: isolate"/>
      <ellipse id="Elipse_14" data-name="Elipse 14" cx="138.091" cy="14.402" rx="138.091" ry="14.402" transform="translate(3013.01 4015.813)" fill="#f2f2f2" opacity="0.986" style="isolation: isolate"/>
      <ellipse id="Elipse_15" data-name="Elipse 15" cx="137.753" cy="14.233" rx="137.753" ry="14.233" transform="translate(3013.349 4015.982)" fill="#f1f1f1" opacity="0.985" style="isolation: isolate"/>
      <ellipse id="Elipse_16" data-name="Elipse 16" cx="137.583" cy="14.233" rx="137.583" ry="14.233" transform="translate(3013.518 4015.982)" fill="#f0f0f0" opacity="0.984" style="isolation: isolate"/>
      <ellipse id="Elipse_17" data-name="Elipse 17" cx="137.244" cy="14.233" rx="137.244" ry="14.233" transform="translate(3013.857 4015.982)" fill="#efefef" opacity="0.983" style="isolation: isolate"/>
      <ellipse id="Elipse_18" data-name="Elipse 18" cx="136.905" cy="14.233" rx="136.905" ry="14.233" transform="translate(3014.196 4015.982)" fill="#eee" opacity="0.982" style="isolation: isolate"/>
      <ellipse id="Elipse_19" data-name="Elipse 19" cx="136.566" cy="14.233" rx="136.566" ry="14.233" transform="translate(3014.535 4015.982)" fill="#ededed" opacity="0.981" style="isolation: isolate"/>
      <ellipse id="Elipse_20" data-name="Elipse 20" cx="136.228" cy="14.063" rx="136.228" ry="14.063" transform="translate(3014.874 4016.152)" fill="#ececec" opacity="0.98" style="isolation: isolate"/>
      <ellipse id="Elipse_21" data-name="Elipse 21" cx="135.889" cy="14.063" rx="135.889" ry="14.063" transform="translate(3015.213 4016.152)" fill="#ebebeb" opacity="0.979" style="isolation: isolate"/>
      <ellipse id="Elipse_22" data-name="Elipse 22" cx="135.55" cy="14.063" rx="135.55" ry="14.063" transform="translate(3015.552 4016.152)" fill="#eaeaea" opacity="0.978" style="isolation: isolate"/>
      <ellipse id="Elipse_23" data-name="Elipse 23" cx="135.211" cy="14.063" rx="135.211" ry="14.063" transform="translate(3015.89 4016.152)" fill="#e9e9e9" opacity="0.977" style="isolation: isolate"/>
      <ellipse id="Elipse_24" data-name="Elipse 24" cx="134.872" cy="14.063" rx="134.872" ry="14.063" transform="translate(3016.229 4016.152)" fill="#e8e8e8" opacity="0.976" style="isolation: isolate"/>
      <ellipse id="Elipse_25" data-name="Elipse 25" cx="134.533" cy="13.894" rx="134.533" ry="13.894" transform="translate(3016.568 4016.321)" fill="#e7e7e7" opacity="0.975" style="isolation: isolate"/>
      <ellipse id="Elipse_26" data-name="Elipse 26" cx="134.194" cy="13.894" rx="134.194" ry="13.894" transform="translate(3016.907 4016.321)" fill="#e6e6e6" opacity="0.974" style="isolation: isolate"/>
      <ellipse id="Elipse_27" data-name="Elipse 27" cx="134.025" cy="13.894" rx="134.025" ry="13.894" transform="translate(3017.077 4016.321)" fill="#e5e5e5" opacity="0.973" style="isolation: isolate"/>
      <ellipse id="Elipse_28" data-name="Elipse 28" cx="133.686" cy="13.894" rx="133.686" ry="13.894" transform="translate(3017.416 4016.321)" fill="#e4e4e4" opacity="0.971" style="isolation: isolate"/>
      <ellipse id="Elipse_29" data-name="Elipse 29" cx="133.347" cy="13.724" rx="133.347" ry="13.724" transform="translate(3017.754 4016.49)" fill="#e3e3e3" opacity="0.97" style="isolation: isolate"/>
      <ellipse id="Elipse_30" data-name="Elipse 30" cx="133.008" cy="13.724" rx="133.008" ry="13.724" transform="translate(3018.093 4016.49)" fill="#e2e2e2" opacity="0.969" style="isolation: isolate"/>
      <ellipse id="Elipse_31" data-name="Elipse 31" cx="132.669" cy="13.724" rx="132.669" ry="13.724" transform="translate(3018.432 4016.49)" fill="#e1e1e1" opacity="0.968" style="isolation: isolate"/>
      <ellipse id="Elipse_32" data-name="Elipse 32" cx="132.331" cy="13.724" rx="132.331" ry="13.724" transform="translate(3018.771 4016.49)" fill="#e0e0e0" opacity="0.967" style="isolation: isolate"/>
      <ellipse id="Elipse_33" data-name="Elipse 33" cx="131.992" cy="13.724" rx="131.992" ry="13.724" transform="translate(3019.11 4016.49)" fill="#dfdfdf" opacity="0.966" style="isolation: isolate"/>
      <ellipse id="Elipse_34" data-name="Elipse 34" cx="131.653" cy="13.555" rx="131.653" ry="13.555" transform="translate(3019.449 4016.66)" fill="#dedede" opacity="0.965" style="isolation: isolate"/>
      <ellipse id="Elipse_35" data-name="Elipse 35" cx="131.314" cy="13.555" rx="131.314" ry="13.555" transform="translate(3019.788 4016.66)" fill="#ddd" opacity="0.964" style="isolation: isolate"/>
      <ellipse id="Elipse_36" data-name="Elipse 36" cx="130.975" cy="13.555" rx="130.975" ry="13.555" transform="translate(3020.126 4016.66)" fill="#dcdcdc" opacity="0.963" style="isolation: isolate"/>
      <ellipse id="Elipse_37" data-name="Elipse 37" cx="130.636" cy="13.555" rx="130.636" ry="13.555" transform="translate(3020.465 4016.66)" fill="#dbdbdb" opacity="0.962" style="isolation: isolate"/>
      <ellipse id="Elipse_38" data-name="Elipse 38" cx="130.297" cy="13.555" rx="130.297" ry="13.555" transform="translate(3020.804 4016.66)" fill="#dadada" opacity="0.961" style="isolation: isolate"/>
      <ellipse id="Elipse_39" data-name="Elipse 39" cx="130.128" cy="13.555" rx="130.128" ry="13.555" transform="translate(3020.974 4016.66)" fill="#d9d9d9" opacity="0.96" style="isolation: isolate"/>
      <ellipse id="Elipse_40" data-name="Elipse 40" cx="129.789" cy="13.386" rx="129.789" ry="13.386" transform="translate(3021.313 4016.829)" fill="#d8d8d8" opacity="0.959" style="isolation: isolate"/>
      <ellipse id="Elipse_41" data-name="Elipse 41" cx="129.45" cy="13.386" rx="129.45" ry="13.386" transform="translate(3021.651 4016.829)" fill="#d7d7d7" opacity="0.958" style="isolation: isolate"/>
      <ellipse id="Elipse_42" data-name="Elipse 42" cx="129.111" cy="13.386" rx="129.111" ry="13.386" transform="translate(3021.99 4016.829)" fill="#d6d6d6" opacity="0.957" style="isolation: isolate"/>
      <ellipse id="Elipse_43" data-name="Elipse 43" cx="128.772" cy="13.386" rx="128.772" ry="13.386" transform="translate(3022.329 4016.829)" fill="#d5d5d5" opacity="0.956" style="isolation: isolate"/>
      <ellipse id="Elipse_44" data-name="Elipse 44" cx="128.433" cy="13.386" rx="128.433" ry="13.386" transform="translate(3022.668 4016.829)" fill="#d4d4d4" opacity="0.955" style="isolation: isolate"/>
      <ellipse id="Elipse_45" data-name="Elipse 45" cx="128.095" cy="13.216" rx="128.095" ry="13.216" transform="translate(3023.007 4016.999)" fill="#d3d3d3" opacity="0.953" style="isolation: isolate"/>
      <ellipse id="Elipse_46" data-name="Elipse 46" cx="127.756" cy="13.216" rx="127.756" ry="13.216" transform="translate(3023.346 4016.999)" fill="#d2d2d2" opacity="0.952" style="isolation: isolate"/>
      <ellipse id="Elipse_47" data-name="Elipse 47" cx="127.417" cy="13.216" rx="127.417" ry="13.216" transform="translate(3023.685 4016.999)" fill="#d1d1d1" opacity="0.951" style="isolation: isolate"/>
      <ellipse id="Elipse_48" data-name="Elipse 48" cx="127.078" cy="13.216" rx="127.078" ry="13.216" transform="translate(3024.023 4016.999)" fill="#d0d0d0" opacity="0.95" style="isolation: isolate"/>
      <ellipse id="Elipse_49" data-name="Elipse 49" cx="126.739" cy="13.216" rx="126.739" ry="13.216" transform="translate(3024.362 4016.999)" fill="#cfcfcf" opacity="0.949" style="isolation: isolate"/>
      <ellipse id="Elipse_50" data-name="Elipse 50" cx="126.57" cy="13.047" rx="126.57" ry="13.047" transform="translate(3024.532 4017.168)" fill="#cecece" opacity="0.948" style="isolation: isolate"/>
      <ellipse id="Elipse_51" data-name="Elipse 51" cx="126.231" cy="13.047" rx="126.231" ry="13.047" transform="translate(3024.871 4017.168)" fill="#cdcdcd" opacity="0.947" style="isolation: isolate"/>
      <ellipse id="Elipse_52" data-name="Elipse 52" cx="125.892" cy="13.047" rx="125.892" ry="13.047" transform="translate(3025.209 4017.168)" fill="#ccc" opacity="0.946" style="isolation: isolate"/>
      <ellipse id="Elipse_53" data-name="Elipse 53" cx="125.553" cy="13.047" rx="125.553" ry="13.047" transform="translate(3025.548 4017.168)" fill="#cbcbcb" opacity="0.945" style="isolation: isolate"/>
      <ellipse id="Elipse_54" data-name="Elipse 54" cx="125.214" cy="13.047" rx="125.214" ry="13.047" transform="translate(3025.887 4017.168)" fill="#cacaca" opacity="0.944" style="isolation: isolate"/>
      <ellipse id="Elipse_55" data-name="Elipse 55" cx="124.875" cy="12.877" rx="124.875" ry="12.877" transform="translate(3026.226 4017.338)" fill="#c9c9c9" opacity="0.943" style="isolation: isolate"/>
      <ellipse id="Elipse_56" data-name="Elipse 56" cx="124.536" cy="12.877" rx="124.536" ry="12.877" transform="translate(3026.565 4017.338)" fill="#c8c8c8" opacity="0.942" style="isolation: isolate"/>
      <ellipse id="Elipse_57" data-name="Elipse 57" cx="124.198" cy="12.877" rx="124.198" ry="12.877" transform="translate(3026.904 4017.338)" fill="#c7c7c7" opacity="0.941" style="isolation: isolate"/>
      <ellipse id="Elipse_58" data-name="Elipse 58" cx="123.859" cy="12.877" rx="123.859" ry="12.877" transform="translate(3027.243 4017.338)" fill="#c6c6c6" opacity="0.94" style="isolation: isolate"/>
      <path id="Trazado_9" data-name="Trazado 9" d="M3274.621,4030.215c0,7.116-55.406,12.877-123.52,12.877s-123.519-5.761-123.519-12.877,55.406-12.877,123.519-12.877C3219.385,4017.338,3274.621,4023.1,3274.621,4030.215Z" fill="#c5c5c5" opacity="0.939" style="isolation: isolate"/>
      <ellipse id="Elipse_59" data-name="Elipse 59" cx="123.181" cy="12.708" rx="123.181" ry="12.708" transform="translate(3027.921 4017.507)" fill="#c4c4c4" opacity="0.938" style="isolation: isolate"/>
      <ellipse id="Elipse_60" data-name="Elipse 60" cx="123.011" cy="12.708" rx="123.011" ry="12.708" transform="translate(3028.09 4017.507)" fill="#c3c3c3" opacity="0.937" style="isolation: isolate"/>
      <ellipse id="Elipse_61" data-name="Elipse 61" cx="122.673" cy="12.708" rx="122.673" ry="12.708" transform="translate(3028.429 4017.507)" fill="#c2c2c2" opacity="0.935" style="isolation: isolate"/>
      <ellipse id="Elipse_62" data-name="Elipse 62" cx="122.334" cy="12.708" rx="122.334" ry="12.708" transform="translate(3028.768 4017.507)" fill="#c1c1c1" opacity="0.934" style="isolation: isolate"/>
      <ellipse id="Elipse_63" data-name="Elipse 63" cx="121.995" cy="12.708" rx="121.995" ry="12.708" transform="translate(3029.107 4017.507)" fill="silver" opacity="0.933" style="isolation: isolate"/>
      <ellipse id="Elipse_64" data-name="Elipse 64" cx="121.656" cy="12.538" rx="121.656" ry="12.538" transform="translate(3029.446 4017.677)" fill="#bfbfbf" opacity="0.932" style="isolation: isolate"/>
      <ellipse id="Elipse_65" data-name="Elipse 65" cx="121.317" cy="12.538" rx="121.317" ry="12.538" transform="translate(3029.784 4017.677)" fill="#bebebe" opacity="0.931" style="isolation: isolate"/>
      <ellipse id="Elipse_66" data-name="Elipse 66" cx="120.978" cy="12.538" rx="120.978" ry="12.538" transform="translate(3030.123 4017.677)" fill="#bdbdbd" opacity="0.93" style="isolation: isolate"/>
      <ellipse id="Elipse_67" data-name="Elipse 67" cx="120.639" cy="12.538" rx="120.639" ry="12.538" transform="translate(3030.462 4017.677)" fill="#bcbcbc" opacity="0.929" style="isolation: isolate"/>
      <ellipse id="Elipse_68" data-name="Elipse 68" cx="120.3" cy="12.538" rx="120.3" ry="12.538" transform="translate(3030.801 4017.677)" fill="#bbb" opacity="0.928" style="isolation: isolate"/>
      <ellipse id="Elipse_69" data-name="Elipse 69" cx="119.962" cy="12.369" rx="119.962" ry="12.369" transform="translate(3031.14 4017.846)" fill="#bababa" opacity="0.927" style="isolation: isolate"/>
      <ellipse id="Elipse_70" data-name="Elipse 70" cx="119.623" cy="12.369" rx="119.623" ry="12.369" transform="translate(3031.479 4017.846)" fill="#b9b9b9" opacity="0.926" style="isolation: isolate"/>
      <ellipse id="Elipse_71" data-name="Elipse 71" cx="119.284" cy="12.369" rx="119.284" ry="12.369" transform="translate(3031.818 4017.846)" fill="#b8b8b8" opacity="0.925" style="isolation: isolate"/>
      <ellipse id="Elipse_72" data-name="Elipse 72" cx="119.114" cy="12.369" rx="119.114" ry="12.369" transform="translate(3031.987 4017.846)" fill="#b7b7b7" opacity="0.924" style="isolation: isolate"/>
      <ellipse id="Elipse_73" data-name="Elipse 73" cx="118.776" cy="12.369" rx="118.776" ry="12.369" transform="translate(3032.326 4017.846)" fill="#b6b6b6" opacity="0.923" style="isolation: isolate"/>
      <ellipse id="Elipse_74" data-name="Elipse 74" cx="118.437" cy="12.2" rx="118.437" ry="12.2" transform="translate(3032.665 4018.015)" fill="#b5b5b5" opacity="0.922" style="isolation: isolate"/>
      <ellipse id="Elipse_75" data-name="Elipse 75" cx="118.098" cy="12.2" rx="118.098" ry="12.2" transform="translate(3033.004 4018.015)" fill="#b4b4b4" opacity="0.921" style="isolation: isolate"/>
      <ellipse id="Elipse_76" data-name="Elipse 76" cx="117.759" cy="12.2" rx="117.759" ry="12.2" transform="translate(3033.343 4018.015)" fill="#b3b3b3" opacity="0.92" style="isolation: isolate"/>
      <ellipse id="Elipse_77" data-name="Elipse 77" cx="117.42" cy="12.2" rx="117.42" ry="12.2" transform="translate(3033.681 4018.015)" fill="#b2b2b2" opacity="0.919" style="isolation: isolate"/>
      <ellipse id="Elipse_78" data-name="Elipse 78" cx="117.081" cy="12.2" rx="117.081" ry="12.2" transform="translate(3034.02 4018.015)" fill="#b1b1b1" opacity="0.918" style="isolation: isolate"/>
      <path id="Trazado_10" data-name="Trazado 10" d="M3267.844,4030.215c0,6.777-52.356,12.03-116.743,12.03s-116.742-5.422-116.742-12.03c0-6.778,52.187-12.03,116.742-12.03C3215.657,4018.015,3267.844,4023.437,3267.844,4030.215Z" fill="#b0b0b0" opacity="0.916" style="isolation: isolate"/>
      <ellipse id="Elipse_79" data-name="Elipse 79" cx="116.403" cy="12.03" rx="116.403" ry="12.03" transform="translate(3034.698 4018.185)" fill="#afafaf" opacity="0.915" style="isolation: isolate"/>
      <ellipse id="Elipse_80" data-name="Elipse 80" cx="116.065" cy="12.03" rx="116.065" ry="12.03" transform="translate(3035.037 4018.185)" fill="#aeaeae" opacity="0.914" style="isolation: isolate"/>
      <ellipse id="Elipse_81" data-name="Elipse 81" cx="115.726" cy="12.03" rx="115.726" ry="12.03" transform="translate(3035.376 4018.185)" fill="#adadad" opacity="0.913" style="isolation: isolate"/>
      <path id="Trazado_11" data-name="Trazado 11" d="M3266.658,4030.215c0,6.608-51.679,12.03-115.557,12.03s-115.386-5.591-115.386-12.03,51.678-12.03,115.556-12.03S3266.658,4023.437,3266.658,4030.215Z" fill="#acacac" opacity="0.912" style="isolation: isolate"/>
      <path id="Trazado_12" data-name="Trazado 12" d="M3266.319,4030.215c0,6.608-51.509,11.86-115.218,11.86-63.539,0-115.217-5.252-115.217-11.86s51.509-11.861,115.217-11.861S3266.319,4023.607,3266.319,4030.215Z" fill="#ababab" opacity="0.911" style="isolation: isolate"/>
      <ellipse id="Elipse_82" data-name="Elipse 82" cx="114.878" cy="11.861" rx="114.878" ry="11.861" transform="translate(3036.223 4018.354)" fill="#aaa" opacity="0.91" style="isolation: isolate"/>
      <ellipse id="Elipse_83" data-name="Elipse 83" cx="114.54" cy="11.861" rx="114.54" ry="11.861" transform="translate(3036.562 4018.354)" fill="#a9a9a9" opacity="0.909" style="isolation: isolate"/>
      <ellipse id="Elipse_84" data-name="Elipse 84" cx="114.201" cy="11.861" rx="114.201" ry="11.861" transform="translate(3036.901 4018.354)" fill="#a8a8a8" opacity="0.908" style="isolation: isolate"/>
      <ellipse id="Elipse_85" data-name="Elipse 85" cx="113.862" cy="11.861" rx="113.862" ry="11.861" transform="translate(3037.24 4018.354)" fill="#a7a7a7" opacity="0.907" style="isolation: isolate"/>
      <ellipse id="Elipse_86" data-name="Elipse 86" cx="113.523" cy="11.691" rx="113.523" ry="11.691" transform="translate(3037.578 4018.524)" fill="#a6a6a6" opacity="0.906" style="isolation: isolate"/>
      <ellipse id="Elipse_87" data-name="Elipse 87" cx="113.184" cy="11.691" rx="113.184" ry="11.691" transform="translate(3037.917 4018.524)" fill="#a5a5a5" opacity="0.905" style="isolation: isolate"/>
      <ellipse id="Elipse_88" data-name="Elipse 88" cx="112.845" cy="11.691" rx="112.845" ry="11.691" transform="translate(3038.256 4018.524)" fill="#a4a4a4" opacity="0.904" style="isolation: isolate"/>
      <ellipse id="Elipse_89" data-name="Elipse 89" cx="112.506" cy="11.691" rx="112.506" ry="11.691" transform="translate(3038.595 4018.524)" fill="#a3a3a3" opacity="0.903" style="isolation: isolate"/>
      <path id="Trazado_13" data-name="Trazado 13" d="M3263.438,4030.215c0,6.438-50.323,11.691-112.167,11.691-62.014,0-112.168-5.253-112.168-11.691s50.323-11.691,112.168-11.691S3263.438,4023.776,3263.438,4030.215Z" fill="#a2a2a2" opacity="0.902" style="isolation: isolate"/>
      <path id="Trazado_14" data-name="Trazado 14" d="M3263.1,4030.215c0,6.438-50.153,11.522-112,11.522s-112-5.253-112-11.522,50.154-11.691,112-11.691S3263.1,4023.776,3263.1,4030.215Z" fill="#a1a1a1" opacity="0.9" style="isolation: isolate"/>
      <ellipse id="Elipse_90" data-name="Elipse 90" cx="111.659" cy="11.522" rx="111.659" ry="11.522" transform="translate(3039.442 4018.693)" fill="#a0a0a0" opacity="0.9" style="isolation: isolate"/>
      <ellipse id="Elipse_91" data-name="Elipse 91" cx="111.32" cy="11.522" rx="111.32" ry="11.522" transform="translate(3039.781 4018.693)" fill="#9f9f9f" opacity="0.898" style="isolation: isolate"/>
      <ellipse id="Elipse_92" data-name="Elipse 92" cx="110.981" cy="11.522" rx="110.981" ry="11.522" transform="translate(3040.12 4018.693)" fill="#9e9e9e" opacity="0.897" style="isolation: isolate"/>
      <ellipse id="Elipse_93" data-name="Elipse 93" cx="110.643" cy="11.522" rx="110.643" ry="11.522" transform="translate(3040.459 4018.693)" fill="#9d9d9d" opacity="0.896" style="isolation: isolate"/>
      <ellipse id="Elipse_94" data-name="Elipse 94" cx="110.304" cy="11.522" rx="110.304" ry="11.522" transform="translate(3040.798 4018.693)" fill="#9c9c9c" opacity="0.895" style="isolation: isolate"/>
      <ellipse id="Elipse_95" data-name="Elipse 95" cx="109.965" cy="11.352" rx="109.965" ry="11.352" transform="translate(3041.137 4018.863)" fill="#9b9b9b" opacity="0.894" style="isolation: isolate"/>
      <ellipse id="Elipse_96" data-name="Elipse 96" cx="109.626" cy="11.352" rx="109.626" ry="11.352" transform="translate(3041.476 4018.863)" fill="#9a9a9a" opacity="0.893" style="isolation: isolate"/>
      <ellipse id="Elipse_97" data-name="Elipse 97" cx="109.287" cy="11.352" rx="109.287" ry="11.352" transform="translate(3041.814 4018.863)" fill="#999" opacity="0.892" style="isolation: isolate"/>
      <ellipse id="Elipse_98" data-name="Elipse 98" cx="108.948" cy="11.352" rx="108.948" ry="11.352" transform="translate(3042.153 4018.863)" fill="#989898" opacity="0.891" style="isolation: isolate"/>
      <path id="Trazado_15" data-name="Trazado 15" d="M3259.88,4030.215c0,6.269-48.628,11.183-108.609,11.183s-108.609-5.083-108.609-11.183c0-6.269,48.628-11.183,108.609-11.183C3211.082,4018.863,3259.88,4023.946,3259.88,4030.215Z" fill="#979797" opacity="0.89" style="isolation: isolate"/>
      <ellipse id="Elipse_99" data-name="Elipse 99" cx="108.27" cy="11.183" rx="108.27" ry="11.183" transform="translate(3042.831 4019.032)" fill="#969696" opacity="0.889" style="isolation: isolate"/>
      <ellipse id="Elipse_100" data-name="Elipse 100" cx="108.101" cy="11.183" rx="108.101" ry="11.183" transform="translate(3043 4019.032)" fill="#959595" opacity="0.888" style="isolation: isolate"/>
      <path id="Trazado_16" data-name="Trazado 16" d="M3258.864,4030.215c0,6.1-48.29,11.183-107.763,11.183s-107.762-5.083-107.762-11.183,48.29-11.183,107.762-11.183S3258.864,4023.946,3258.864,4030.215Z" fill="#949494" opacity="0.887" style="isolation: isolate"/>
      <path id="Trazado_17" data-name="Trazado 17" d="M3258.525,4030.215c0,6.1-48.121,11.183-107.424,11.183s-107.423-4.914-107.423-11.183,48.12-11.183,107.423-11.183S3258.525,4023.946,3258.525,4030.215Z" fill="#939393" opacity="0.886" style="isolation: isolate"/>
      <path id="Trazado_18" data-name="Trazado 18" d="M3258.186,4030.215c0,6.1-47.951,11.013-107.085,11.013s-107.084-4.913-107.084-11.013,47.951-11.014,107.084-11.014S3258.186,4023.946,3258.186,4030.215Z" fill="#929292" opacity="0.885" style="isolation: isolate"/>
      <ellipse id="Elipse_101" data-name="Elipse 101" cx="106.745" cy="11.013" rx="106.745" ry="11.013" transform="translate(3044.356 4019.201)" fill="#919191" opacity="0.884" style="isolation: isolate"/>
      <ellipse id="Elipse_102" data-name="Elipse 102" cx="106.407" cy="11.013" rx="106.407" ry="11.013" transform="translate(3044.695 4019.201)" fill="#909090" opacity="0.882" style="isolation: isolate"/>
      <ellipse id="Elipse_103" data-name="Elipse 103" cx="106.068" cy="11.013" rx="106.068" ry="11.013" transform="translate(3045.034 4019.201)" fill="#8f8f8f" opacity="0.882" style="isolation: isolate"/>
      <ellipse id="Elipse_104" data-name="Elipse 104" cx="105.729" cy="11.013" rx="105.729" ry="11.013" transform="translate(3045.373 4019.201)" fill="#8e8e8e" opacity="0.88" style="isolation: isolate"/>
      <path id="Trazado_19" data-name="Trazado 19" d="M3256.491,4030.215c0,6.1-47.273,11.013-105.39,11.013s-105.39-4.913-105.39-11.013,47.273-11.014,105.39-11.014C3209.388,4019.2,3256.491,4024.115,3256.491,4030.215Z" fill="#8d8d8d" opacity="0.879" style="isolation: isolate"/>
      <ellipse id="Elipse_105" data-name="Elipse 105" cx="105.051" cy="10.844" rx="105.051" ry="10.844" transform="translate(3046.05 4019.371)" fill="#8c8c8c" opacity="0.878" style="isolation: isolate"/>
      <ellipse id="Elipse_106" data-name="Elipse 106" cx="104.712" cy="10.844" rx="104.712" ry="10.844" transform="translate(3046.389 4019.371)" fill="#8b8b8b" opacity="0.877" style="isolation: isolate"/>
      <ellipse id="Elipse_107" data-name="Elipse 107" cx="104.543" cy="10.844" rx="104.543" ry="10.844" transform="translate(3046.559 4019.371)" fill="#8a8a8a" opacity="0.876" style="isolation: isolate"/>
      <path id="Trazado_20" data-name="Trazado 20" d="M3255.3,4030.215c0,5.93-46.595,10.844-104.2,10.844-57.439,0-104.2-4.914-104.2-10.844s46.595-10.844,104.2-10.844S3255.3,4024.115,3255.3,4030.215Z" fill="#898989" opacity="0.875" style="isolation: isolate"/>
      <path id="Trazado_21" data-name="Trazado 21" d="M3254.966,4030.215c0,5.93-46.425,10.844-103.865,10.844s-103.865-4.744-103.865-10.844,46.426-10.844,103.865-10.844C3208.371,4019.371,3254.966,4024.115,3254.966,4030.215Z" fill="#888" opacity="0.874" style="isolation: isolate"/>
      <path id="Trazado_22" data-name="Trazado 22" d="M3254.628,4030.215c0,5.93-46.426,10.674-103.527,10.674s-103.526-4.744-103.526-10.674,46.257-10.675,103.526-10.675C3208.2,4019.371,3254.628,4024.285,3254.628,4030.215Z" fill="#878787" opacity="0.873" style="isolation: isolate"/>
      <ellipse id="Elipse_108" data-name="Elipse 108" cx="103.187" cy="10.675" rx="103.187" ry="10.675" transform="translate(3047.914 4019.54)" fill="#868686" opacity="0.872" style="isolation: isolate"/>
      <ellipse id="Elipse_109" data-name="Elipse 109" cx="102.848" cy="10.675" rx="102.848" ry="10.675" transform="translate(3048.253 4019.54)" fill="#858585" opacity="0.871" style="isolation: isolate"/>
      <ellipse id="Elipse_110" data-name="Elipse 110" cx="102.51" cy="10.675" rx="102.51" ry="10.675" transform="translate(3048.592 4019.54)" fill="#848484" opacity="0.87" style="isolation: isolate"/>
      <ellipse id="Elipse_111" data-name="Elipse 111" cx="102.171" cy="10.675" rx="102.171" ry="10.675" transform="translate(3048.931 4019.54)" fill="#838383" opacity="0.869" style="isolation: isolate"/>
      <path id="Trazado_23" data-name="Trazado 23" d="M3252.933,4030.215c0,5.761-45.578,10.5-101.832,10.5s-101.831-4.744-101.831-10.5,45.578-10.505,101.831-10.505C3207.355,4019.54,3252.933,4024.285,3252.933,4030.215Z" fill="#828282" opacity="0.868" style="isolation: isolate"/>
      <ellipse id="Elipse_112" data-name="Elipse 112" cx="101.493" cy="10.505" rx="101.493" ry="10.505" transform="translate(3049.608 4019.71)" fill="#818181" opacity="0.867" style="isolation: isolate"/>
      <ellipse id="Elipse_113" data-name="Elipse 113" cx="101.154" cy="10.505" rx="101.154" ry="10.505" transform="translate(3049.947 4019.71)" fill="gray" opacity="0.866" style="isolation: isolate"/>
      <path id="Trazado_24" data-name="Trazado 24" d="M3252.086,4030.215c0,5.761-45.24,10.5-100.985,10.5s-100.984-4.744-100.984-10.5,45.24-10.505,100.984-10.505S3252.086,4024.285,3252.086,4030.215Z" fill="#7f7f7f" opacity="0.864" style="isolation: isolate"/>
      <path id="Trazado_25" data-name="Trazado 25" d="M3251.747,4030.215c0,5.761-45.07,10.336-100.646,10.336s-100.645-4.745-100.645-10.336,45.07-10.336,100.645-10.336C3206.677,4019.71,3251.747,4024.454,3251.747,4030.215Z" fill="#7e7e7e" opacity="0.863" style="isolation: isolate"/>
      <path id="Trazado_26" data-name="Trazado 26" d="M3251.408,4030.215c0,5.761-44.9,10.336-100.307,10.336s-100.306-4.575-100.306-10.336,44.9-10.336,100.306-10.336C3206.507,4019.71,3251.408,4024.454,3251.408,4030.215Z" fill="#7d7d7d" opacity="0.862" style="isolation: isolate"/>
      <ellipse id="Elipse_114" data-name="Elipse 114" cx="99.968" cy="10.336" rx="99.968" ry="10.336" transform="translate(3051.134 4019.879)" fill="#7c7c7c" opacity="0.861" style="isolation: isolate"/>
      <path id="Trazado_27" data-name="Trazado 27" d="M3250.731,4030.215c0,5.761-44.562,10.336-99.63,10.336s-99.629-4.575-99.629-10.336,44.562-10.336,99.629-10.336C3206.169,4019.71,3250.731,4024.454,3250.731,4030.215Z" fill="#7b7b7b" opacity="0.86" style="isolation: isolate"/>
      <path id="Trazado_28" data-name="Trazado 28" d="M3250.392,4030.215c0,5.761-44.393,10.336-99.291,10.336s-99.29-4.575-99.29-10.336,44.393-10.336,99.29-10.336S3250.392,4024.454,3250.392,4030.215Z" fill="#7a7a7a" opacity="0.859" style="isolation: isolate"/>
      <path id="Trazado_29" data-name="Trazado 29" d="M3250.053,4030.215c0,5.591-44.223,10.166-98.952,10.166s-98.951-4.575-98.951-10.166c0-5.761,44.393-10.166,98.951-10.166C3205.83,4019.879,3250.053,4024.454,3250.053,4030.215Z" fill="#797979" opacity="0.858" style="isolation: isolate"/>
      <path id="Trazado_30" data-name="Trazado 30" d="M3249.714,4030.215c0,5.591-44.223,10.166-98.613,10.166s-98.612-4.575-98.612-10.166,44.223-10.166,98.612-10.166S3249.714,4024.454,3249.714,4030.215Z" fill="#787878" opacity="0.857" style="isolation: isolate"/>
      <ellipse id="Elipse_115" data-name="Elipse 115" cx="98.274" cy="10.166" rx="98.274" ry="10.166" transform="translate(3052.828 4020.049)" fill="#777" opacity="0.856" style="isolation: isolate"/>
      <ellipse id="Elipse_116" data-name="Elipse 116" cx="97.935" cy="10.166" rx="97.935" ry="10.166" transform="translate(3053.167 4020.049)" fill="#767676" opacity="0.855" style="isolation: isolate"/>
      <ellipse id="Elipse_117" data-name="Elipse 117" cx="97.596" cy="10.166" rx="97.596" ry="10.166" transform="translate(3053.506 4020.049)" fill="#757575" opacity="0.854" style="isolation: isolate"/>
      <path id="Trazado_31" data-name="Trazado 31" d="M3248.528,4030.215c0,5.591-43.546,10.166-97.257,10.166s-97.257-4.575-97.257-10.166,43.545-10.166,97.257-10.166S3248.528,4024.623,3248.528,4030.215Z" fill="#747474" opacity="0.853" style="isolation: isolate"/>
      <path id="Trazado_32" data-name="Trazado 32" d="M3248.189,4030.215c0,5.591-43.376,10-97.088,10s-97.087-4.575-97.087-10c0-5.592,43.376-10,97.087-10C3204.644,4020.049,3248.189,4024.623,3248.189,4030.215Z" fill="#737373" opacity="0.852" style="isolation: isolate"/>
      <ellipse id="Elipse_118" data-name="Elipse 118" cx="96.749" cy="9.997" rx="96.749" ry="9.997" transform="translate(3054.353 4020.218)" fill="#727272" opacity="0.851" style="isolation: isolate"/>
      <path id="Trazado_33" data-name="Trazado 33" d="M3247.511,4030.215c0,5.591-43.206,10-96.41,10s-96.409-4.406-96.409-10,43.206-10,96.409-10S3247.511,4024.623,3247.511,4030.215Z" fill="#717171" opacity="0.85" style="isolation: isolate"/>
      <path id="Trazado_34" data-name="Trazado 34" d="M3247.172,4030.215c0,5.591-43.037,10-96.071,10s-96.07-4.406-96.07-10,43.037-10,96.07-10S3247.172,4024.623,3247.172,4030.215Z" fill="#707070" opacity="0.849" style="isolation: isolate"/>
      <path id="Trazado_35" data-name="Trazado 35" d="M3246.833,4030.215c0,5.422-42.867,10-95.732,10s-95.732-4.406-95.732-10c0-5.422,42.868-10,95.732-10S3246.833,4024.623,3246.833,4030.215Z" fill="#6f6f6f" opacity="0.848" style="isolation: isolate"/>
      <path id="Trazado_36" data-name="Trazado 36" d="M3246.5,4030.215c0,5.422-42.7,9.827-95.394,9.827s-95.393-4.405-95.393-9.827,42.7-9.827,95.393-9.827C3203.8,4020.218,3246.5,4024.623,3246.5,4030.215Z" fill="#6e6e6e" opacity="0.847" style="isolation: isolate"/>
      <ellipse id="Elipse_119" data-name="Elipse 119" cx="95.054" cy="9.827" rx="95.054" ry="9.827" transform="translate(3056.047 4020.387)" fill="#6d6d6d" opacity="0.845" style="isolation: isolate"/>
      <ellipse id="Elipse_120" data-name="Elipse 120" cx="94.715" cy="9.827" rx="94.715" ry="9.827" transform="translate(3056.386 4020.387)" fill="#6c6c6c" opacity="0.844" style="isolation: isolate"/>
      <ellipse id="Elipse_121" data-name="Elipse 121" cx="94.377" cy="9.827" rx="94.377" ry="9.827" transform="translate(3056.725 4020.387)" fill="#6b6b6b" opacity="0.843" style="isolation: isolate"/>
      <path id="Trazado_37" data-name="Trazado 37" d="M3245.139,4030.215c0,5.422-42.19,9.827-94.038,9.827s-94.037-4.405-94.037-9.827,42.19-9.827,94.037-9.827C3203.119,4020.388,3245.139,4024.793,3245.139,4030.215Z" fill="#6a6a6a" opacity="0.842" style="isolation: isolate"/>
      <path id="Trazado_38" data-name="Trazado 38" d="M3244.97,4030.215c0,5.422-42.021,9.658-93.7,9.658s-93.7-4.406-93.7-9.658c0-5.422,42.02-9.658,93.7-9.658C3202.949,4020.388,3244.97,4024.793,3244.97,4030.215Z" fill="#696969" opacity="0.841" style="isolation: isolate"/>
      <ellipse id="Elipse_122" data-name="Elipse 122" cx="93.529" cy="9.658" rx="93.529" ry="9.658" transform="translate(3057.572 4020.557)" fill="#686868" opacity="0.84" style="isolation: isolate"/>
      <ellipse id="Elipse_123" data-name="Elipse 123" cx="93.19" cy="9.658" rx="93.19" ry="9.658" transform="translate(3057.911 4020.557)" fill="#676767" opacity="0.839" style="isolation: isolate"/>
      <path id="Trazado_39" data-name="Trazado 39" d="M3243.953,4030.215c0,5.252-41.512,9.658-92.852,9.658s-92.851-4.236-92.851-9.658c0-5.253,41.512-9.658,92.851-9.658S3243.953,4024.793,3243.953,4030.215Z" fill="#666" opacity="0.838" style="isolation: isolate"/>
      <path id="Trazado_40" data-name="Trazado 40" d="M3243.614,4030.215c0,5.252-41.343,9.658-92.513,9.658s-92.512-4.236-92.512-9.658,41.342-9.658,92.512-9.658S3243.614,4024.793,3243.614,4030.215Z" fill="#656565" opacity="0.837" style="isolation: isolate"/>
      <path id="Trazado_41" data-name="Trazado 41" d="M3243.275,4030.215c0,5.252-41.342,9.488-92.174,9.488s-92.173-4.236-92.173-9.488,41.173-9.489,92.173-9.489S3243.275,4024.793,3243.275,4030.215Z" fill="#646464" opacity="0.836" style="isolation: isolate"/>
      <ellipse id="Elipse_124" data-name="Elipse 124" cx="91.835" cy="9.488" rx="91.835" ry="9.488" transform="translate(3059.266 4020.726)" fill="#636363" opacity="0.835" style="isolation: isolate"/>
      <path id="Trazado_42" data-name="Trazado 42" d="M3242.6,4030.215c0,5.252-41,9.488-91.5,9.488s-91.5-4.236-91.5-9.488,41-9.489,91.5-9.489S3242.6,4024.793,3242.6,4030.215Z" fill="#626262" opacity="0.834" style="isolation: isolate"/>
      <path id="Trazado_43" data-name="Trazado 43" d="M3242.259,4030.215c0,5.252-40.835,9.488-91.158,9.488s-91.157-4.236-91.157-9.488,40.835-9.489,91.157-9.489S3242.259,4024.962,3242.259,4030.215Z" fill="#616161" opacity="0.833" style="isolation: isolate"/>
      <path id="Trazado_44" data-name="Trazado 44" d="M3241.92,4030.215c0,5.252-40.665,9.488-90.819,9.488s-90.818-4.236-90.818-9.488,40.665-9.489,90.818-9.489S3241.92,4024.962,3241.92,4030.215Z" fill="#606060" opacity="0.832" style="isolation: isolate"/>
      <path id="Trazado_45" data-name="Trazado 45" d="M3241.581,4030.215c0,5.252-40.5,9.319-90.48,9.319s-90.479-4.236-90.479-9.319,40.495-9.319,90.479-9.319C3201.085,4020.726,3241.581,4024.962,3241.581,4030.215Z" fill="#5f5f5f" opacity="0.831" style="isolation: isolate"/>
      <ellipse id="Elipse_125" data-name="Elipse 125" cx="90.141" cy="9.319" rx="90.141" ry="9.319" transform="translate(3060.961 4020.896)" fill="#5e5e5e" opacity="0.83" style="isolation: isolate"/>
      <ellipse id="Elipse_126" data-name="Elipse 126" cx="89.971" cy="9.319" rx="89.971" ry="9.319" transform="translate(3061.13 4020.896)" fill="#5d5d5d" opacity="0.829" style="isolation: isolate"/>
      <path id="Trazado_46" data-name="Trazado 46" d="M3240.734,4030.215c0,5.083-40.157,9.319-89.633,9.319s-89.632-4.236-89.632-9.319,40.157-9.319,89.632-9.319S3240.734,4024.962,3240.734,4030.215Z" fill="#5c5c5c" opacity="0.827" style="isolation: isolate"/>
      <path id="Trazado_47" data-name="Trazado 47" d="M3240.4,4030.215c0,5.083-39.987,9.319-89.294,9.319s-89.293-4.067-89.293-9.319,39.987-9.319,89.293-9.319S3240.4,4024.962,3240.4,4030.215Z" fill="#5b5b5b" opacity="0.826" style="isolation: isolate"/>
      <path id="Trazado_48" data-name="Trazado 48" d="M3240.056,4030.215c0,5.083-39.818,9.149-88.955,9.149s-88.954-4.066-88.954-9.149,39.818-9.15,88.954-9.15C3200.238,4020.9,3240.056,4024.962,3240.056,4030.215Z" fill="#5a5a5a" opacity="0.825" style="isolation: isolate"/>
      <path id="Trazado_49" data-name="Trazado 49" d="M3239.717,4030.215c0,5.083-39.648,9.149-88.616,9.149s-88.615-4.066-88.615-9.149,39.648-9.15,88.615-9.15S3239.717,4025.132,3239.717,4030.215Z" fill="#595959" opacity="0.824" style="isolation: isolate"/>
      <path id="Trazado_50" data-name="Trazado 50" d="M3239.378,4030.215c0,5.083-39.479,9.149-88.277,9.149s-88.276-4.066-88.276-9.149,39.478-9.15,88.276-9.15C3199.9,4020.9,3239.378,4025.132,3239.378,4030.215Z" fill="#585858" opacity="0.823" style="isolation: isolate"/>
      <path id="Trazado_51" data-name="Trazado 51" d="M3239.039,4030.215c0,5.083-39.309,9.149-87.938,9.149s-87.938-4.066-87.938-9.149,39.31-9.15,87.938-9.15S3239.039,4025.132,3239.039,4030.215Z" fill="#575757" opacity="0.822" style="isolation: isolate"/>
      <path id="Trazado_52" data-name="Trazado 52" d="M3238.7,4030.215c0,5.083-39.309,9.149-87.6,9.149s-87.6-4.066-87.6-9.149,39.31-9.15,87.6-9.15C3199.56,4021.065,3238.7,4025.132,3238.7,4030.215Z" fill="#565656" opacity="0.821" style="isolation: isolate"/>
      <path id="Trazado_53" data-name="Trazado 53" d="M3238.362,4030.215c0,5.083-39.14,8.98-87.261,8.98s-87.26-4.066-87.26-8.98c0-5.083,39.14-8.98,87.26-8.98C3199.391,4021.065,3238.362,4025.132,3238.362,4030.215Z" fill="#555" opacity="0.82" style="isolation: isolate"/>
      <path id="Trazado_54" data-name="Trazado 54" d="M3238.023,4030.215c0,4.914-38.971,8.98-86.922,8.98s-86.921-4.066-86.921-8.98,38.971-8.98,86.921-8.98C3199.222,4021.065,3238.023,4025.132,3238.023,4030.215Z" fill="#545454" opacity="0.819" style="isolation: isolate"/>
      <ellipse id="Elipse_127" data-name="Elipse 127" cx="86.582" cy="8.98" rx="86.582" ry="8.98" transform="translate(3064.519 4021.235)" fill="#535353" opacity="0.818" style="isolation: isolate"/>
      <ellipse id="Elipse_128" data-name="Elipse 128" cx="86.244" cy="8.98" rx="86.244" ry="8.98" transform="translate(3064.858 4021.235)" fill="#525252" opacity="0.817" style="isolation: isolate"/>
      <path id="Trazado_55" data-name="Trazado 55" d="M3237.176,4030.215c0,4.914-38.463,8.98-86.075,8.98-47.442,0-86.074-4.066-86.074-8.98s38.463-8.98,86.074-8.98C3198.544,4021.235,3237.176,4025.132,3237.176,4030.215Z" fill="#515151" opacity="0.816" style="isolation: isolate"/>
      <path id="Trazado_56" data-name="Trazado 56" d="M3236.837,4030.215c0,4.914-38.293,8.811-85.736,8.811s-85.735-3.9-85.735-8.811,38.293-8.811,85.735-8.811C3198.374,4021.235,3236.837,4025.3,3236.837,4030.215Z" fill="#505050" opacity="0.815" style="isolation: isolate"/>
      <path id="Trazado_57" data-name="Trazado 57" d="M3236.5,4030.215c0,4.914-38.293,8.811-85.4,8.811s-85.4-3.9-85.4-8.811,38.293-8.811,85.4-8.811C3198.205,4021.235,3236.5,4025.3,3236.5,4030.215Z" fill="#4f4f4f" opacity="0.814" style="isolation: isolate"/>
      <path id="Trazado_58" data-name="Trazado 58" d="M3236.159,4030.215c0,4.914-38.123,8.811-85.058,8.811s-85.057-3.9-85.057-8.811,38.123-8.811,85.057-8.811C3198.036,4021.235,3236.159,4025.3,3236.159,4030.215Z" fill="#4e4e4e" opacity="0.813" style="isolation: isolate"/>
      <path id="Trazado_59" data-name="Trazado 59" d="M3235.82,4030.215c0,4.914-37.954,8.811-84.719,8.811s-84.718-3.9-84.718-8.811,37.954-8.811,84.718-8.811S3235.82,4025.3,3235.82,4030.215Z" fill="#4d4d4d" opacity="0.812" style="isolation: isolate"/>
      <path id="Trazado_60" data-name="Trazado 60" d="M3235.481,4030.215c0,4.914-37.784,8.811-84.38,8.811s-84.379-3.9-84.379-8.811,37.784-8.811,84.379-8.811S3235.481,4025.3,3235.481,4030.215Z" fill="#4c4c4c" opacity="0.811" style="isolation: isolate"/>
      <path id="Trazado_61" data-name="Trazado 61" d="M3235.142,4030.215c0,4.744-37.615,8.641-84.041,8.641s-84.04-3.9-84.04-8.641,37.615-8.641,84.04-8.641C3197.527,4021.4,3235.142,4025.3,3235.142,4030.215Z" fill="#4b4b4b" opacity="0.809" style="isolation: isolate"/>
      <path id="Trazado_62" data-name="Trazado 62" d="M3234.8,4030.215c0,4.744-37.445,8.641-83.7,8.641s-83.7-3.9-83.7-8.641,37.446-8.641,83.7-8.641C3197.358,4021.4,3234.8,4025.3,3234.8,4030.215Z" fill="#4a4a4a" opacity="0.808" style="isolation: isolate"/>
      <path id="Trazado_63" data-name="Trazado 63" d="M3234.465,4030.215c0,4.744-37.277,8.641-83.364,8.641s-83.363-3.9-83.363-8.641,37.276-8.641,83.363-8.641C3197.188,4021.4,3234.465,4025.3,3234.465,4030.215Z" fill="#494949" opacity="0.807" style="isolation: isolate"/>
      <path id="Trazado_64" data-name="Trazado 64" d="M3234.126,4030.215c0,4.744-37.277,8.641-83.025,8.641-45.917,0-83.024-3.9-83.024-8.641s37.276-8.641,83.024-8.641C3197.019,4021.574,3234.126,4025.3,3234.126,4030.215Z" fill="#484848" opacity="0.806" style="isolation: isolate"/>
      <path id="Trazado_65" data-name="Trazado 65" d="M3233.956,4030.215c0,4.744-37.107,8.641-82.685,8.641s-82.686-3.9-82.686-8.641,37.107-8.641,82.686-8.641S3233.956,4025.471,3233.956,4030.215Z" fill="#474747" opacity="0.805" style="isolation: isolate"/>
      <path id="Trazado_66" data-name="Trazado 66" d="M3233.617,4030.215c0,4.744-36.937,8.472-82.516,8.472s-82.516-3.9-82.516-8.472c0-4.744,36.938-8.472,82.516-8.472C3196.68,4021.574,3233.617,4025.471,3233.617,4030.215Z" fill="#464646" opacity="0.804" style="isolation: isolate"/>
      <path id="Trazado_67" data-name="Trazado 67" d="M3233.279,4030.215c0,4.744-36.768,8.472-82.178,8.472s-82.177-3.9-82.177-8.472c0-4.744,36.768-8.472,82.177-8.472C3196.511,4021.574,3233.279,4025.471,3233.279,4030.215Z" fill="#454545" opacity="0.803" style="isolation: isolate"/>
      <ellipse id="Elipse_129" data-name="Elipse 129" cx="81.838" cy="8.472" rx="81.838" ry="8.472" transform="translate(3069.263 4021.743)" fill="#444" opacity="0.802" style="isolation: isolate"/>
      <path id="Trazado_68" data-name="Trazado 68" d="M3232.6,4030.215c0,4.744-36.429,8.472-81.5,8.472s-81.5-3.728-81.5-8.472,36.429-8.472,81.5-8.472S3232.6,4025.471,3232.6,4030.215Z" fill="#434343" opacity="0.801" style="isolation: isolate"/>
      <path id="Trazado_69" data-name="Trazado 69" d="M3232.262,4030.215c0,4.575-36.26,8.472-81.161,8.472s-81.16-3.728-81.16-8.472,36.26-8.472,81.16-8.472S3232.262,4025.471,3232.262,4030.215Z" fill="#424242" opacity="0.8" style="isolation: isolate"/>
    </g>
    <path id="Trazado_70" data-name="Trazado 70" d="M3107.048,3878.23l24.738,127.755-17.283-.847-10.675-65.064c-5.591-26.771-28.973-72.858-28.973-72.858Z" fill="#424242"/>
    <path id="Trazado_71" data-name="Trazado 71" d="M3147.882,3879.755l18.469,131.313,16.266-5.93-8.642-65.233c-2.372-27.28,0-67.267,0-67.267Z" fill="#424242"/>
    <path id="Trazado_72" data-name="Trazado 72" d="M3065.366,3690.493c-2.2,23.552-6.1,137.075-5.422,138.261l121.995,17.621c-.169-4.574,18.3-140.124,16.266-147.918l-63.539,17.791Z" fill="url(#linear-gradient-2)"/>
    <g id="Grupo_5" data-name="Grupo 5">
      <path id="Trazado_73" data-name="Trazado 73" d="M3092.476,3613.4l36.768,1.355.17-10-38.971,1.355Z" opacity="0.12" style="isolation: isolate"/>
      <path id="Trazado_74" data-name="Trazado 74" d="M3093.832,3610.688l36.768,1.355v-10l-38.971,1.355Z" fill="#5f2900"/>
      <path id="Trazado_75" data-name="Trazado 75" d="M3179.228,3625.09l-33.04-10.505,2.88-8.811,34.226,13.555Z" opacity="0.12" style="isolation: isolate"/>
      <path id="Trazado_76" data-name="Trazado 76" d="M3177.534,3622.379l-32.871-10.505,2.711-8.811,34.226,13.555Z" fill="#5f2900"/>
    </g>
    <path id="Trazado_77" data-name="Trazado 77" d="M3059.944,3828.754s-.339,30.5,9.828,39.14c10.335,8.641,68.961,31.346,102.848,7.455,7.286-6.269,10.336-21.857,9.488-31.176Z" fill="#424242"/>
    <path id="Trazado_78" data-name="Trazado 78" d="M3120.433,3630.512c-.508,5.253-3.727,9.15-6.947,8.811s-5.422-4.914-4.744-10c.508-5.252,3.728-9.149,6.947-8.81C3118.739,3620.854,3120.942,3625.26,3120.433,3630.512Z" opacity="0.2" style="isolation: isolate"/>
    <ellipse id="Elipse_130" data-name="Elipse 130" cx="9.488" cy="5.591" rx="9.488" ry="5.591" transform="translate(3147.02 3642.222) rotate(-83.731)" opacity="0.2" style="isolation: isolate"/>
    <path id="Trazado_79" data-name="Trazado 79" d="M3118.4,3628.649c-.508,4.405-2.542,7.624-4.575,7.455s-3.389-3.9-2.88-8.3,2.541-7.624,4.575-7.455C3117.553,3620.685,3118.908,3624.413,3118.4,3628.649Z"/>
    <path id="Trazado_80" data-name="Trazado 80" d="M3157.54,3632.376c-.508,4.406-2.542,7.625-4.575,7.455s-3.219-3.9-2.88-8.3c.508-4.405,2.541-7.625,4.575-7.455S3158.048,3627.971,3157.54,3632.376Z"/>
    <path id="Trazado_81" data-name="Trazado 81" d="M3115.858,4002.6l-25.923,8.133s-20.5-3.22-24.908,8.3c-2.88,7.625-3.558,10.336-3.558,10.336,20.333,0,73.028-.339,73.028-.339.338-6.608-1.864-24.569-1.864-24.569Z" fill="#5f2900"/>
    <path id="Trazado_82" data-name="Trazado 82" d="M3182.278,4002.6l25.924,8.133s20.5-3.22,24.907,8.3c2.711,7.625,3.558,10.336,3.558,10.336-20.332,0-73.027-.339-73.027-.339-.339-6.608,1.864-24.569,1.864-24.569Z" fill="#5f2900"/>
    <path id="Trazado_83" data-name="Trazado 83" d="M3160.759,3835.193l7.794,21.688,4.405,8.472,44.562-15.927,10.505-9.658-12.877-23.891h0l-1.525-2.711-4.914.678-22.7-8.472-1.017,12.369Z" fill="#e88e47"/>
    <path id="Trazado_84" data-name="Trazado 84" d="M3215.149,3815.877h0l-1.525-2.711-4.914.677-9.15-2.711c1.525,4.236,10.675,28.8,15.758,38.971l2.2-.847,5.761-5.253c1.525-1.864,2.88-3.727,4.236-5.422Z" opacity="0.35" style="isolation: isolate"/>
    <path id="Trazado_85" data-name="Trazado 85" d="M3196.849,3711.334c-.169,2.711-.338,6.777-.847,11.691,43.885,32.363,30.5,58.8,6.608,85.735,0,0,11.861,32.363,17.114,41.682C3302.239,3789.106,3216,3724.381,3196.849,3711.334Z" fill="url(#linear-gradient-3)"/>
    <g id="Grupo_6" data-name="Grupo 6">
      <path id="Trazado_86" data-name="Trazado 86" d="M3204.474,3600.014c0-11.692-.847-20.841-2.372-26.771-7.286-.339-14.4-.509-21.688-.848-1.186,0-2.372-.169-3.728-.169-24.06-1.017-48.289-2.033-72.349-2.88-2.372,0-4.575-.17-6.947-.339l-25.924-1.017a200.017,200.017,0,0,0-3.05,24.23c-.847,10.166-1.355,22.2-2.033,35.581,3.727-4.405,5.591-16.774,6.1-19.315,1.863-9.489,3.388-19.147,9.827-26.772,13.216-15.418,22.535-1.525,34.4,7.117s26.093,13.555,40.834,13.046a70.29,70.29,0,0,0,21.349-4.235c3.9-1.356,10.844-6.778,15.25-5.422,6.1,1.863,5.93,13.046,6.438,17.96.339,3.389-1.016,15.927,2.2,17.96.339.17.508.339.847.509C3204.3,3618.143,3204.644,3608.486,3204.474,3600.014Z" opacity="0.1" style="isolation: isolate"/>
      <path id="Trazado_87" data-name="Trazado 87" d="M3214.979,3589.17a75.318,75.318,0,0,1-2.711,20.332c-1.186,4.406-3.558,14.233-7.963,16.436-2.372-4.406-.509-10-1.017-14.741-.339-4.745-.847-10.506-3.05-14.911-4.744-9.15-14.063-15.758-10.166-26.94,2.88-8.133,11.691-6.439,17.283-1.525C3213.115,3573.073,3214.81,3581.884,3214.979,3589.17Z" fill="#5f2900"/>
      <path id="Trazado_88" data-name="Trazado 88" d="M3212.946,3576.462a19.61,19.61,0,0,0-5.591-8.641,16.146,16.146,0,0,0-5.084-3.22c-5.591,3.389-9.827,10-11.691,16.436,2.372,5.252,6.778,9.827,9.658,15.249,2.372,4.405,2.711,10,3.05,14.911.339,4.574-1.355,10.166.847,14.4,4.914-7.286,3.9-22.027,2.2-28.635-1.186-4.575-3.219-8.133-1.186-12.877A17.846,17.846,0,0,1,3212.946,3576.462Z" fill="#361700"/>
      <path id="Trazado_89" data-name="Trazado 89" d="M3090.782,3540.711c-3.558,5.76-4.744,13.555-2.2,19.824,2.711,6.777,9.827,8.3,15.927,11.013a85.634,85.634,0,0,1,18.13,10.844c5.93,4.744,11.861,9.828,19.316,12.03,11.183,3.389,23.382,3.05,34.734.847,28.635-5.591,47.612-48.289,29.652-73.705,2.033,13.894-6.608,16.436-16.435,22.705,10-11.183,2.372-33.04-11.692-39.479,17.452,38.97-27.618,31.346-49.645,28.635C3116.028,3532.069,3098.576,3528.342,3090.782,3540.711Z" fill="#5f2900"/>
      <path id="Trazado_90" data-name="Trazado 90" d="M3075.363,3548.674a20.466,20.466,0,0,1,11.013,2.2c4.067,2.033,8.3,3.9,11.692,6.777,2.2,1.864,7.455,8.133,6.608,11.522-.678,2.542-3.05,1.356-5.253,1.186-4.066-.169-8.811,0-12.538,1.694-12.539,6.1-15.927,22.705-17.961,35.074-.508,2.711-.339,6.439-2.372,8.641-5.422-3.9-5.252-16.266-6.438-22.365-2.373-12.539-2.881-29.821,5.93-40.157A13.671,13.671,0,0,1,3075.363,3548.674Z" fill="#5f2900"/>
      <path id="Trazado_91" data-name="Trazado 91" d="M3206.169,3521.9a24.055,24.055,0,0,1,.338,4.744c1.186,4.914,2.542,9.658,1.864,15.25a62.31,62.31,0,0,1-6.438,20.163c-4.406,8.133-10.336,16.774-19.316,20.5-10.166,4.236-18.977,6.269-29.821,3.727-10.336-2.372-18.808-7.794-28.466-12.03-9.488-4.236-18.638-12.03-29.312-11.183a18.772,18.772,0,0,0-4.236.848c3.388,4.066,8.98,5.591,13.894,7.794a85.583,85.583,0,0,1,18.129,10.844c5.931,4.744,11.861,9.827,19.316,12.03,11.183,3.388,23.383,3.05,34.735.847C3205.152,3589.847,3229.72,3543.93,3206.169,3521.9Z" fill="#361700"/>
      <path id="Trazado_92" data-name="Trazado 92" d="M3094.848,3563.076c-8.641.678-19.485,7.117-23.382,15.08-5.592,11.183-3.558,23.383-3.558,35.413.677-2.034.677-4.575,1.186-6.439,2.033-12.2,5.422-28.974,17.96-35.074,3.558-1.694,8.3-1.863,12.538-1.694,2.2.17,4.575,1.356,5.253-1.186.339-1.355-.339-3.219-1.355-5.083A24.729,24.729,0,0,0,3094.848,3563.076Z" fill="#361700"/>
      <path id="Trazado_93" data-name="Trazado 93" d="M3081.293,3559.179c5.253-.339,7.456-4.744,2.034-7.116-5.931-2.542-12.369,1.017-15.419,6.1-3.05,4.913-1.864,8.81-2.711,13.893C3066.213,3563.415,3073.5,3559.688,3081.293,3559.179Z" fill="#fff" opacity="0.2" style="isolation: isolate"/>
      <path id="Trazado_94" data-name="Trazado 94" d="M3163.47,3564.262c-11.183,5.084-19.316,1.864-29.821-2.711-4.574-2.033-9.149-3.388-13.724-5.591-8.811-3.9-17.622-8.3-27.279-3.9-.339-5.422,2.88-10.675,7.116-13.894a19.27,19.27,0,0,1,12.538-3.728c7.117.339,15.08,6.1,21.688,2.711-3.727,3.22-7.455,4.914-12.369,4.406-3.9-.339-10.166-2.542-12.538,1.694,8.811-4.405,23.213,7.964,30.668,11.014,11.352,4.744,24.23,8.98,34.735-.17C3170.587,3558.671,3168.892,3561.89,3163.47,3564.262Z" fill="#fff" opacity="0.2" style="isolation: isolate"/>
    </g>
    <path id="Trazado_95" data-name="Trazado 95" d="M3084.343,3643.22s54.22,30.5,97.765,5.422c1.356,26.771-18.638,57.1-53.711,53.542C3098.406,3699.134,3082.818,3679.31,3084.343,3643.22Z" fill="#450800"/>
    <path id="Trazado_96" data-name="Trazado 96" d="M3100.1,3691c7.116,6.27,16.6,10,28.3,11.183,12.03,1.186,22.366-1.525,30.668-6.777-8.133-9.319-10.675-12.539-27.618-12.708C3109.081,3682.7,3106.031,3687.952,3100.1,3691Z" fill="#b20a00"/>
    <path id="Trazado_97" data-name="Trazado 97" d="M3084.343,3643.22a57.42,57.42,0,0,0,0,7.625c9.827,6.269,52.017,30.668,97.088,8.98a48.737,48.737,0,0,0,.677-11.013C3138.563,3673.719,3084.343,3643.22,3084.343,3643.22Z" fill="#fff"/>
    <path id="Trazado_98" data-name="Trazado 98" d="M3084.343,3643.22a52.419,52.419,0,0,0,0,7.286c5.083-5.761,20.841,7.286,49.645,9.827,27.957,2.542,44.562-9.827,47.612-.847a58.387,58.387,0,0,0,.678-10.844C3138.563,3673.719,3084.343,3643.22,3084.343,3643.22Z" fill="#c4c4c4"/>
    <path id="Trazado_99" data-name="Trazado 99" d="M3099.254,3690.154c7.285,6.778,16.943,10.844,29.143,12.03,14.233,1.525,26.093-2.711,34.9-9.827C3136.53,3702.184,3105.862,3688.968,3099.254,3690.154Z" fill="#fff"/>
    <g id="Grupo_7" data-name="Grupo 7">
      <path id="Trazado_100" data-name="Trazado 100" d="M3125.516,3805.88l8.133,13.894,23.382-25.077L3145,3734.039l-1.355-16.774Z" opacity="0.35" style="isolation: isolate"/>
      <path id="Trazado_101" data-name="Trazado 101" d="M3119.756,3724.55l-14.741,63.539,23.043,27.618,24.4-24.568-10.844-65.911Z" fill="#5f2900"/>
      <path id="Trazado_102" data-name="Trazado 102" d="M3118.061,3710.656l-1.017,14.063,26.771,3.389.847-16.774Z" fill="#5f2900"/>
      <path id="Trazado_103" data-name="Trazado 103" d="M3142.63,3730.819l-1.017-5.592-21.857-.678-.847,3.728Z" opacity="0.36" style="isolation: isolate"/>
      <path id="Trazado_104" data-name="Trazado 104" d="M3115.858,3713.028l-.847,13.047,31.346,3.389.847-15.419Z" fill="#5f2900"/>
      <path id="Trazado_105" data-name="Trazado 105" d="M3147.2,3759.285l-29.821-25.246-3.727,16.1,36.429,27.11Zm-36.429,4.405-2.033,8.98,32.7,29.652,8.3-8.3Z" fill="#873a00"/>
      <path id="Trazado_106" data-name="Trazado 106" d="M3141.952,3751.66a3.73,3.73,0,0,1-3.558,3.728l-25.924-1.356a3.793,3.793,0,0,1-3.22-4.066h0a3.73,3.73,0,0,1,3.559-3.728l25.924,1.356a3.669,3.669,0,0,1,3.219,4.066Z" fill="#ffa81f"/>
      <path id="Trazado_107" data-name="Trazado 107" d="M3123.653,3750.813c0,1.355-.678,2.372-1.186,2.372l-7.964-.508c-.508,0-1.017-1.186-.847-2.542h0c0-1.355.678-2.372,1.186-2.372l7.963.508c.509,0,.848,1.186.848,2.542Z" fill="#fff"/>
    </g>
    <g id="Grupo_9" data-name="Grupo 9">
      <path id="Trazado_108" data-name="Trazado 108" d="M2963.534,3755.9s.509,38.97,60.659,26.94c57.27-11.521,32.532-84.888-4.914-79.466Z" fill="#f69e63"/>
      <path id="Trazado_109" data-name="Trazado 109" d="M3035.206,3753.524c-4.913-6.608-32.7-8.811-59.3-9.319l-12.369,11.691a35.937,35.937,0,0,0,16.944,24.229c6.269-1.016,19.994-4.405,20.333-14.91C3019.788,3770.129,3044.864,3766.909,3035.206,3753.524Z" opacity="0.1" style="isolation: isolate"/>
      <g id="Grupo_8" data-name="Grupo 8">
        <path id="Trazado_110" data-name="Trazado 110" d="M3037.24,3752.338a7.6,7.6,0,0,1-7.286,7.963l-66.25,2.542a7.741,7.741,0,0,1-7.964-7.455L2951,3631.529a7.6,7.6,0,0,1,7.286-7.964l66.25-2.541a7.6,7.6,0,0,1,7.963,7.286Z" fill="#424242"/>
        <circle id="Elipse_131" data-name="Elipse 131" cx="7.625" cy="7.625" r="7.625" transform="translate(2988.611 3741.155)" fill="#707070"/>
        <path id="Trazado_111" data-name="Trazado 111" d="M3002.336,3748.61a6.223,6.223,0,0,0-6.439-5.93,6.3,6.3,0,0,0-5.93,6.269,6.178,6.178,0,0,0,6.269,5.93A6.009,6.009,0,0,0,3002.336,3748.61Z" fill="#424242"/>
        <path id="Trazado_112" data-name="Trazado 112" d="M3032.156,3733.53a3.434,3.434,0,0,1-3.388,3.558l-66.081,2.373a3.435,3.435,0,0,1-3.558-3.389l-3.558-97.6a3.435,3.435,0,0,1,3.389-3.558l66.08-2.372a3.434,3.434,0,0,1,3.558,3.388Z" fill="#9ad5f0"/>
        <path id="Trazado_113" data-name="Trazado 113" d="M2998.1,3627.971a1.742,1.742,0,0,1-1.7,1.864l-9.149.338a1.741,1.741,0,0,1-1.864-1.694h0a1.741,1.741,0,0,1,1.694-1.864l9.15-.339a1.743,1.743,0,0,1,1.864,1.7Z" fill="#707070"/>
        <path id="Trazado_114" data-name="Trazado 114" d="M3029.615,3664.4l-1.017-28.466a3.548,3.548,0,0,0-3.558-3.388l-66.08,2.372a3.548,3.548,0,0,0-3.389,3.558l2.541,68.453C2972.684,3698.287,3003.522,3679.649,3029.615,3664.4Z" fill="url(#linear-gradient-4)"/>
      </g>
      <path id="Trazado_115" data-name="Trazado 115" d="M2992.339,3738.444c-.339-7.286-4.575-14.572-11.353-15.419,16.436-29.821-18.3-26.432-18.3-26.432l8.641,42.7Z" opacity="0.1" style="isolation: isolate"/>
      <path id="Trazado_116" data-name="Trazado 116" d="M2954.893,3756.4l25.077-6.269c7.624-2.541,12.538-23.382.169-26.093s-33.718,4.744-38.123,6.438C2937.61,3732.344,2928.969,3751.829,2954.893,3756.4Z" fill="#f69e63"/>
      <path id="Trazado_117" data-name="Trazado 117" d="M2963.365,3778.092c9.488,1.864,23.043,1.525,23.043,1.525,7.117-.169,16.944-16.435,7.117-22.027s-29.991-5.083-34.227-4.913S2941.677,3773.687,2963.365,3778.092Z" fill="#f69e63"/>
      <path id="Trazado_118" data-name="Trazado 118" d="M2947.777,3729.294l23.89-6.1c7.286-2.373,11.861-23.213.17-25.924s-32.193,3.9-36.26,6.1C2931.341,3705.743,2923.039,3724.55,2947.777,3729.294Z" fill="#f69e63"/>
      <path id="Trazado_119" data-name="Trazado 119" d="M3058.08,3742.68c-11.521-38.124,17.791-51.17-13.385-55.745-25.416-3.728-16.436,42.359-5.93,50.323" fill="#f69e63"/>
    </g>
  </g>
</svg>
